<svg xmlns="http://www.w3.org/2000/svg" width="512" height="512" viewBox="0 0 512 512">
  <rect width="512" height="512" rx="96" fill="#1a1a1a"/>
  <circle cx="256" cy="256" r="220" fill="none" stroke="#7BA7BC" stroke-width="3" opacity="0.3"/>
  
  <g transform="translate(256, 280)">
    <path d="M -120 15 Q -135 -30 -90 -65 Q -50 -100 0 -100 Q 70 -100 100 -55 Q 130 -10 120 40 Q 105 95 50 110 Q 0 125 -55 110 Q -110 90 -120 15 Z" 
          fill="#0a0a0a"/>
    
    <path d="M -25 -85 Q -10 -110 15 -110 Q 50 -110 60 -85 Q 70 -55 50 -45 Q 15 -40 -20 -52 Q -38 -65 -25 -85 Z" 
          fill="#050505"/>
    
    <ellipse cx="20" cy="-70" rx="11" ry="9" fill="#7BA7BC"/>
    <circle cx="22" cy="-70" r="4.5" fill="#0a0a0a"/>
    <circle cx="24" cy="-72" r="1.8" fill="#D4A95C"/>
    
    <path d="M 50 -75 L 100 -58 L 50 -50 Z" fill="#2a2a2a" stroke="#0a0a0a" stroke-width="1"/>
    <path d="M 50 -75 L 100 -58 L 50 -50 Z" fill="url(#beakShine)"/>
    
    <path d="M -28 -20 Q -65 -5 -100 30 Q -115 50 -110 70 Q -85 60 -50 40 Q -22 22 -28 -20 Z" 
          fill="#151515"/>
    
    <ellipse cx="-5" cy="55" rx="60" ry="22" fill="#9B9999" opacity="0.08"/>
  </g>
  
  <g transform="translate(360, 200)">
    <circle r="15" fill="#D4A95C"/>
    <circle r="8" fill="#F4D89A"/>
    <circle r="3" fill="#FFF8E0"/>
  </g>
  
  <defs>
    <linearGradient id="beakShine" x1="0%" y1="0%" x2="100%" y2="100%">
      <stop offset="0%" stop-color="#3a3a3a" stop-opacity="0.6"/>
      <stop offset="100%" stop-color="#0a0a0a" stop-opacity="0"/>
    </linearGradient>
  </defs>
</svg>
